<?xml version="1.0" encoding="UTF-8" standalone="no"?>
<svg
   version="1.1"
   width="512px"
   height="512px"
   style="shape-rendering:geometricPrecision; text-rendering:geometricPrecision; image-rendering:optimizeQuality; fill-rule:evenodd; clip-rule:evenodd"
   id="svg72"
   sodipodi:docname="knznsmn.svg"
   inkscape:version="1.2.2 (b0a8486541, 2022-12-01)"
   xmlns:inkscape="http://www.inkscape.org/namespaces/inkscape"
   xmlns:sodipodi="http://sodipodi.sourceforge.net/DTD/sodipodi-0.dtd"
   xmlns="http://www.w3.org/2000/svg"
   xmlns:svg="http://www.w3.org/2000/svg">
  <defs
     id="defs76" />
  <sodipodi:namedview
     id="namedview74"
     pagecolor="#505050"
     bordercolor="#eeeeee"
     borderopacity="1"
     inkscape:showpageshadow="0"
     inkscape:pageopacity="0"
     inkscape:pagecheckerboard="0"
     inkscape:deskcolor="#505050"
     showgrid="false"
     inkscape:zoom="1.6835938"
     inkscape:cx="233.42923"
     inkscape:cy="256"
     inkscape:window-width="1920"
     inkscape:window-height="1012"
     inkscape:window-x="1080"
     inkscape:window-y="0"
     inkscape:window-maximized="1"
     inkscape:current-layer="svg72" />
  <g
     id="g58">
    <path
       style="opacity:0.988"
       fill="#03aba9"
       d="M 152.5,86.5 C 165.033,85.7469 177.366,86.9136 189.5,90C 198.247,92.4493 204.081,97.9493 207,106.5C 207.667,181.833 207.667,257.167 207,332.5C 207.097,349.202 204.764,365.535 200,381.5C 192.654,396.512 181.154,407.012 165.5,413C 141.034,423.058 115.701,426.391 89.5,423C 74.415,418.874 67.415,408.874 68.5,393C 67.1244,377.706 73.7911,368.373 88.5,365C 101.146,363.842 113.813,362.842 126.5,362C 138.904,359.595 145.738,352.095 147,339.5C 147.667,277.5 147.667,215.5 147,153.5C 146.697,151.112 145.863,148.945 144.5,147C 126.33,145.66 117.33,135.827 117.5,117.5C 116.672,103.979 122.672,95.1461 135.5,91C 141.253,89.3137 146.919,87.8137 152.5,86.5 Z"
       id="path56" />
  </g>
  <g
     id="g62">
    <path
       style="opacity:0.988"
       fill="#03aba9"
       d="M 289.5,88.5 C 334.835,88.3333 380.168,88.5 425.5,89C 439.13,96.4312 444.63,107.931 442,123.5C 439.988,135.507 433.155,143.007 421.5,146C 381.797,146.031 342.13,147.031 302.5,149C 293.72,151.113 288.22,156.613 286,165.5C 285.333,197.5 285.333,229.5 286,261.5C 285.821,272.003 290.655,278.837 300.5,282C 305.769,283.106 311.103,283.773 316.5,284C 352.835,284.565 389.169,285.232 425.5,286C 434.256,289.755 439.756,296.255 442,305.5C 444.9,319.09 441.4,330.59 431.5,340C 428.833,341.333 426.167,342.667 423.5,344C 379.477,344.951 335.477,344.618 291.5,343C 255.816,339.314 234.982,319.814 229,284.5C 226.862,272.254 225.528,259.921 225,247.5C 224.333,224.833 224.333,202.167 225,179.5C 225.492,161.717 228.492,144.384 234,127.5C 239.437,113.063 249.271,102.896 263.5,97C 272.179,93.8386 280.846,91.0052 289.5,88.5 Z"
       id="path60" />
  </g>
  <g
     id="g66">
    <path
       style="opacity:0.452"
       fill="#04a19f"
       d="M 313.5,415.5 C 305.149,408.162 301.982,398.829 304,387.5C 309.902,368.283 322.735,360.783 342.5,365C 353.512,368.68 360.346,376.18 363,387.5C 365.334,403.67 359.167,415.17 344.5,422C 334.719,424.75 325.386,423.75 316.5,419C 315.29,417.961 314.29,416.794 313.5,415.5 Z"
       id="path64" />
  </g>
  <g
     id="g70"
     style="fill:#ffffff">
    <path
       style="opacity:0.999;fill:#ffffff"
       fill="#070808"
       d="M 313.5,415.5 C 310.247,411.333 307.747,406.667 306,401.5C 302.748,384.162 309.248,372.329 325.5,366C 346.935,363.041 359.268,372.208 362.5,393.5C 359.088,416.061 346.088,425.227 323.5,421C 319.952,419.396 316.618,417.563 313.5,415.5 Z"
       id="path68" />
  </g>
</svg>
