<svg xmlns="http://www.w3.org/2000/svg" xml:space="preserve" width="1500" height="177" data-id="lg_xghygc5Z9i7ZdtNRcn" data-version="1" viewBox="0 0 1500 177"><g data-padding="20"><g transform="translate(10 3.155)scale(.96435)"><rect width="560" height="106.22" x="86.542" y="-370.25" fill="none" rx="0" ry="0" transform="translate(400.5 400.25)"/><path fill="#919191" d="m599.512 95.75 3.21-1.98q.55-.27 1.01-.27.5 0 .78.34.27.35.27.85 0 .65-.5 1.45-.51.8-1.56 1.44l-10.47 7.12q-4.17 2.75-7.57 4.54t-6.17 2.87q-2.78 1.08-5.05 1.49-2.27.42-4.2.42-2.57 0-4.43-1.08t-3.05-2.99q-1.2-1.9-1.75-4.54t-.55-5.76q0-5.42 1.49-11.61 1.5-6.2 4.11-12.49.14-.32.14-.78 0-.59-.18-1.33-.19-.73-.39-1.44-.21-.72-.39-1.38-.19-.67-.19-1.08 0-.83.65-1.63.64-.8 1.53-1.44.9-.65 1.91-1.04t1.7-.39q.78 0 1.74.48.96.49 1.79 1.4 1.15 1.34 2.32 2.02 1.17.69 2.34.99t2.36.32q1.2.02 2.39.02 1.84 0 3.76-.98 1.93-.99 3.72-2.66 1.79-1.68 3.35-3.88 1.56-2.21 2.73-4.62t1.86-4.88q.69-2.48.69-4.73 0-4.13-1.56-5.92t-4.22-1.79q-2.11 0-4.82.98-2.71.99-5.79 2.69-3.07 1.7-6.4 4.02-3.33 2.31-6.72 4.95-3.4 2.64-6.73 5.51-3.32 2.87-6.4 5.67t-5.76 5.44q-2.69 2.64-4.77 4.84-2.09 2.2-3.49 3.86-1.4 1.65-1.91 2.47-1.88 3.13-4.1 6.68-2.23 3.56-4.55 7.19-2.32 3.62-4.59 7.13t-4.29 6.59q-2.02 3.07-3.63 5.55-1.6 2.48-2.57 4-.64.82-1.24 1.79-.59.96-1.17 1.83-.57.87-1.1 1.56t-.94 1.01q-2.29 1.1-4.45 1.1-2.2 0-3.67-1.03t-1.47-2.78q0-.18.64-.75.64-.58 1.56-1.4.92-.83 1.95-1.84 1.04-1.01 1.82-2.11 2.47-3.3 5.46-7.62 2.98-4.31 6.29-9.22 3.3-4.92 6.81-10.31t7-10.9 6.84-10.95 6.33-10.51q2.99-5.07 5.51-9.59 2.53-4.52 4.36-8.15 1.84-3.62 2.87-6.17t1.03-3.7q0-.82-.59-.82-.23 0-1.91 1.88-1.67 1.88-4.45 4.98t-6.45 7.05q-3.67 3.94-7.92 8.07-4.24 4.13-8.92 8.08-4.69 3.95-9.41 7.05-4.73 3.1-9.37 4.98-4.63 1.88-8.85 1.88-2.07 0-4.14-.87-2.06-.87-3.71-2.6-1.66-1.72-2.67-4.24-1.01-2.53-1.01-5.83 0-3.63 2.3-7.53 2.29-3.9 6.45-7.85 4.15-3.94 9.96-7.89 5.8-3.95 12.85-7.69t15.12-7.21q8.08-3.46 16.76-6.47 8.67-3 17.74-5.5 9.06-2.51 18.08-4.27 9.02-1.77 17.81-2.73 8.79-.97 16.91-.97 1.61 0 2.39.67.78.66.78 1.44 0 .88-.8 1.56-.81.69-2.37.69-10 0-20.79 1.61t-21.62 4.38q-10.83 2.78-21.32 6.5-10.49 3.71-19.92 7.98t-17.42 8.84q-7.98 4.57-13.81 9.02t-9.11 8.58-3.28 7.48q0 1.84.5 3.15.51 1.3 1.33 2.13.83.83 1.88 1.22 1.06.39 2.16.39 2.34 0 5.39-1.31 3.06-1.31 6.54-3.54 3.49-2.22 7.28-5.18t7.66-6.31q3.88-3.35 7.69-6.87 3.81-3.51 7.35-6.86 3.53-3.35 6.61-6.31 3.07-2.96 5.5-5.18 2.44-2.23 4.04-3.54 1.61-1.31 2.21-1.31l.91-.23q.42-.09.94-.18.53-.09 1.08-.09.88 0 1.54.34.67.35.67 1.31 0 4.27-1.75 9.27-1.74 5.01-4.91 11.06-3.17 6.06-7.53 13.34-4.36 7.27-9.59 16.13 3.21-3.49 7.32-7.66 4.11-4.18 8.65-8.38 4.55-4.2 9.34-8.15 4.8-3.95 9.39-7t8.81-4.89q4.23-1.83 7.62-1.83 3.4 0 5.81.8t3.92 2.2q1.52 1.4 2.23 3.36.71 1.95.71 4.2 0 3.16-1.24 6.79-1.24 3.62-3.37 7.23-2.14 3.6-5.05 6.9-2.92 3.31-6.27 5.83-3.35 2.53-6.97 4.04-3.63 1.52-7.21 1.52-.87 0-1.88-.16t-1.93-.44l-2.16-.64q-1.42 2.66-2.57 5.46-1.14 2.8-1.95 5.58-.8 2.77-1.24 5.41-.43 2.64-.43 4.98 0 2.3.43 4.16.44 1.86 1.36 3.21t2.34 2.09q1.42.73 3.39.73 3.91 0 7.39-1.03 3.49-1.03 6.54-2.55 3.06-1.51 5.72-3.23t4.96-3.1"/><path fill="#919191" d="M658.222 82.91q-1.74 0-4.36.98-2.62.99-5.74 2.71t-6.49 4.06q-3.38 2.34-6.61 5.1-3.24 2.75-6.15 5.8-2.92 3.06-5.07 6.13-.23.23-.23 1.03 0 .81-.26 1.68-.25.87-.98 1.56-.74.69-2.43.69-1.2 0-1.86-.28-.67-.27-1.01-.75-.35-.49-.44-1.15-.09-.67-.09-1.49 0-.83.46-2.44.46-1.6 1.19-3.71.74-2.11 1.65-4.55.92-2.43 1.86-4.86.94-2.44 1.79-4.73t1.45-4.13l-22.17 13.03q-.23.05-.39.07-.16.03-.25.03-.65 0-.94-.35-.3-.34-.3-.85 0-.64.48-1.4.48-.75 1.4-1.31 6.88-4.08 11.36-6.72 4.47-2.64 7.18-4.25 2.71-1.6 4.06-2.38 1.36-.78 2.05-1.15.64-.37 1.17-.5.52-.14 1.17-.14 1.33 0 2.18.78t.85 1.74q0 .97-.6 2.64-.6 1.68-1.47 3.65t-1.79 4.02q-.92 2.04-1.56 3.78-.27.69-.44 1.13-.16.43-.36.98-.21.56-.58 1.4-.36.85-1.05 2.37 1.93-2.48 4.52-5.19t5.64-5.3q3.06-2.59 6.52-4.93 3.47-2.34 7.16-4.11 3.7-1.77 7.55-2.8 3.86-1.03 7.67-1.03 2.34 0 3.23.98.9.99.9 2.69 0 1.37-.51 3.35-.5 1.97-1.37 4.29-.88 2.32-1.98 4.96t-2.31 5.32q-1.22 2.69-2.44 5.39-1.21 2.71-2.27 5.19 2.62-1.05 5.46-2.75 2.85-1.7 6.08-3.81 3.24-2.11 6.84-4.57 3.61-2.45 7.74-5.03.32-.18.87-.18 1.1 0 1.1 1.24 0 .64-.5 1.4-.51.76-1.47 1.35-5.47 3.4-9.87 6.48-4.41 3.07-8.06 5.46-3.65 2.38-6.65 3.78-3.01 1.4-5.58 1.4-1.56 0-2.66-.39t-1.81-1.03q-.72-.64-1.06-1.54-.34-.89-.34-1.85 0-1.06.43-2.09.44-1.04 1.22-2.23 1.42-3.12 3.17-6.54 1.74-3.42 3.21-6.49 1.47-3.08 2.48-5.47 1.01-2.38 1.01-3.44 0-.73-.6-.73"/><path fill="#919191" d="m708.162 83-24.83 14.59q-.6.23-.83.23-.6 0-1.03-.34-.44-.34-.44-.99 0-.5.48-1.21.49-.72 1.82-1.5l21.43-12.62q.28-.41.46-.82.18-.42.18-.69.33-1.7.94-3.12.62-1.43 1.29-2.5.67-1.08 1.29-1.77.61-.69.98-.92.6-.46 1.42-.46.74 0 1.27.46.52.46.52 1.19 0 .69-.5 1.43l-.37.48q-.23.3-.46.78t-.41 1.19-.18 1.72q0 .6.04.99.05.39.05.9 0 .04.76.8.75.76 1.88 1.99 1.12 1.24 2.43 2.9 1.31 1.65 2.43 3.46 1.13 1.81 1.89 3.67.75 1.86.75 3.56 0 1.42-.78 2.66t-2.59 2.14q-1.81.89-4.8 1.42-2.98.53-7.39.53h-1.19q3.72 1.51 5.94 2.73 2.23 1.22 3.74 2.27l23.64-14.37q.19-.13.55-.13.51 0 1.01.41.51.41.51 1.06 0 .5-.46 1.14-.46.65-1.61 1.33l-21.8 13.04q2.11 3.58 3.12 8.33t1.01 10.17q0 5.27-.92 10.87t-2.71 10.91q-1.79 5.3-4.36 10.02-2.57 4.73-5.89 8.27-3.33 3.53-7.32 5.6-4 2.06-8.59 2.06-4.08 0-7.48-1.15-3.4-1.14-5.8-3.35-2.41-2.2-3.75-5.41-1.33-3.22-1.33-7.39 0-5.65 1.89-10.72 1.88-5.07 5.02-9.64 3.15-4.57 7.18-8.6 4.04-4.04 8.33-7.6 4.3-3.56 8.52-6.66 4.22-3.09 7.76-5.76-.65-.87-1.66-1.76-1.01-.9-2.48-1.63-1.46-.74-3.39-1.27-1.93-.52-4.45-.75-1.52-.14-3.22-.16-1.69-.03-3.14-.19t-2.39-.64-.94-1.54q0-.87 1.06-1.6 1.01-.69 3.16-.69h.28q1.61 0 4.34.18 2.73.19 5.71.19 1.93 0 3.83-.21 1.91-.21 3.38-.8 1.47-.6 2.38-1.66.92-1.05.92-2.75 0-2.07-1.35-5.03-1.36-2.96-4.75-7.27m-25.98 74.63q-.14 1.33-.14 2.94 0 1.97.3 4.1.3 2.14 1.15 3.93t2.34 2.94q1.49 1.14 3.92 1.14 3.72 0 6.98-2.47 3.26-2.48 5.97-6.59 2.7-4.11 4.84-9.43 2.13-5.33 3.6-10.97 1.47-5.65 2.25-11.22.78-5.58.78-10.22 0-2.52-.21-4.63-.2-2.11-.71-3.77-2.34 1.75-5.44 4.39-3.09 2.64-6.42 5.96-3.33 3.33-6.59 7.28t-5.92 8.28q-2.66 4.34-4.47 8.98-1.82 4.63-2.23 9.36"/><path fill="#919191" d="M793.482 82.91q-1.74 0-4.36.98-2.61.99-5.73 2.71-3.13 1.72-6.5 4.06t-6.61 5.1q-3.23 2.75-6.15 5.8-2.91 3.06-5.07 6.13-.23.23-.23 1.03 0 .81-.25 1.68-.26.87-.99 1.56t-2.43.69q-1.2 0-1.86-.28-.67-.27-1.01-.75-.35-.49-.44-1.15-.09-.67-.09-1.49 0-.83.46-2.44.46-1.6 1.19-3.71.74-2.11 1.66-4.55.91-2.43 1.85-4.86.95-2.44 1.79-4.73.85-2.29 1.45-4.13l-22.17 13.03q-.23.05-.39.07-.16.03-.25.03-.64 0-.94-.35-.3-.34-.3-.85 0-.64.48-1.4.48-.75 1.4-1.31 6.89-4.08 11.36-6.72 4.48-2.64 7.18-4.25 2.71-1.6 4.07-2.38 1.35-.78 2.04-1.15.64-.37 1.17-.5.53-.14 1.17-.14 1.33 0 2.18.78t.85 1.74q0 .97-.6 2.64-.59 1.68-1.47 3.65-.87 1.97-1.79 4.02-.91 2.04-1.56 3.78-.27.69-.43 1.13-.16.43-.37.98-.21.56-.57 1.4-.37.85-1.06 2.37 1.93-2.48 4.52-5.19 2.6-2.71 5.65-5.3t6.51-4.93q3.47-2.34 7.16-4.11 3.7-1.77 7.56-2.8 3.85-1.03 7.66-1.03 2.34 0 3.24.98.89.99.89 2.69 0 1.37-.5 3.35-.51 1.97-1.38 4.29t-1.97 4.96q-1.11 2.64-2.32 5.32-1.22 2.69-2.43 5.39-1.22 2.71-2.28 5.19 2.62-1.05 5.47-2.75 2.84-1.7 6.08-3.81 3.23-2.11 6.84-4.57 3.6-2.45 7.73-5.03.32-.18.87-.18 1.1 0 1.1 1.24 0 .64-.5 1.4-.51.76-1.47 1.35-5.46 3.4-9.87 6.48-4.4 3.07-8.05 5.46-3.65 2.38-6.66 3.78t-5.58 1.4q-1.56 0-2.66-.39t-1.81-1.03-1.06-1.54q-.34-.89-.34-1.85 0-1.06.44-2.09.43-1.04 1.21-2.23 1.42-3.12 3.17-6.54 1.74-3.42 3.21-6.49 1.47-3.08 2.48-5.47 1.01-2.38 1.01-3.44 0-.73-.6-.73"/><path fill="#919191" d="M849.422 83.41q0 1.93.28 2.85.27.92.62 1.63.34.71.64 1.56t.3 2.64q0 1.24-.25 2.77-.26 1.54-.94 3.17-.69 1.63-1.93 3.21-1.24 1.59-3.17 2.83l17.99-10.29q.32-.18.65-.18.5 0 .89.39t.39 1.03q0 .51-.44 1.24-.43.74-1.49 1.33-5.64 3.22-9.7 5.58-4.07 2.36-6.93 4.06-2.87 1.7-4.71 2.83-1.84 1.12-3.07 1.85-2.21 1.34-4.18 1.79-1.98.46-3.9.46-1.47 0-2.14-.5-.66-.51-.64-1.13t.71-1.14q.69-.53 1.98-.53 2.24 0 4.36-1.54 2.11-1.54 3.74-4.18 1.63-2.63 2.61-6.17.99-3.53.99-7.48 0-.6.25-2.3.25-1.69.81-3.67.55-1.97 1.44-3.85.9-1.88 2.14-2.85l-28.14 18.77q-.46.33-.96.33-.51 0-.83-.37t-.32-.92q0-.64.48-1.42t1.63-1.43q7.39-5 12.41-8.33 5.03-3.32 8.2-5.39l6.42-4.36q1.43-.6 2.99-.94t2.89-.34q1.47 0 2.41.48t.94 1.54q0 .36-.85 1.19-.85.82-1.86 1.86-1.01 1.03-1.86 2.09-.85 1.05-.85 1.83"/><path fill="#919191" d="m953.152 101.26 11.94-7.49q.59-.22.96-.22.64 0 1.17.32t.53.91q0 .65-1.38 1.77-1.37 1.13-3.35 2.41-1.97 1.29-4.08 2.55t-3.63 2.18q-2.02 1.33-4.54 3.19-2.53 1.86-5.21 3.6-2.69 1.75-5.28 2.96-2.59 1.22-4.71 1.22-1.88 0-3.19-1.36-1.3-1.35-1.3-4.33 0-1.79.55-4.2t1.83-5.58q1.52-3.76 2.64-6.61 1.13-2.84 1.86-4.86.74-2.02 1.1-3.33.37-1.31.37-2.04 0-1.56-1.15-1.56-1.14 0-3.21 1.49t-4.61 3.92q-2.55 2.43-5.33 5.58-2.77 3.14-5.3 6.49-2.52 3.35-4.54 6.61t-3.08 5.92q-.18.46-.69.9-.5.43-1.17.78-.66.34-1.44.55t-1.52.21q-1.24 0-2.15-.72-.92-.71-.92-2.45 0-1.47.57-3.37.58-1.91 1.13-3.61.78-2.75 1.67-5.57.9-2.83 1.68-5.17.91-2.71 1.83-5.28.42-.68.9-1.49.48-.8.85-1.63.36-.82.62-1.63.25-.8.25-1.44 0-1.15-1.06-1.15-2.15 0-4.93 1.54-2.78 1.53-5.74 3.99t-5.9 5.55q-2.93 3.1-5.41 6.25-2.48 3.14-4.27 6.01t-2.48 4.89q-.41 1.24-.76 2.15-.34.92-.75 1.52-.42.6-1.01.89-.6.3-1.56.3-1.93 0-2.6-1.08-.66-1.07-.66-2.77 0-.78.46-2.41.45-1.63 1.21-3.74t1.68-4.57 1.86-4.91q.94-2.46 1.81-4.75.87-2.3 1.47-4.09l-22.22 13.08q-.59.33-1.14.33t-.95-.33q-.39-.32-.39-.87 0-.59.58-1.37.57-.79 1.9-1.57l16.39-9.63q.6-.46 1.4-.92t1.7-.83q.89-.37 1.81-.59.92-.23 1.84-.23 1.01 0 1.81.48t1.35 1.19.85 1.58q.3.88.3 1.66 0 .82-.11 1.63-.12.8-.46 1.97-.35 1.17-.94 2.87-.6 1.7-1.56 4.36 1.6-2.16 3.37-4.48 1.77-2.31 3.74-4.54t4.2-4.25 4.7-3.53q2.48-1.51 5.26-2.41 2.78-.89 5.85-.89.92 0 1.81.43.9.44 1.61 1.36.71.91 1.15 2.34.43 1.42.43 3.35 0 2.25-.66 5.16-.67 2.91-2.27 6.63 3.26-4.77 6.58-8.01 3.33-3.23 6.47-5.34 3.15-2.12 5.99-3.24 2.85-1.12 5.15-1.67 1.28 0 2.7.36 1.43.37 2.57 1.08 1.15.71 1.91 1.81.76 1.11.76 2.57 0 .42-.05.83t-.18.87q-.55 1.93-1.52 4.16-.96 2.22-2.06 4.52-1.11 2.29-2.28 4.52-1.17 2.22-2.08 4.18-.92 1.95-1.52 3.48-.6 1.54-.6 2.41 0 1.1.83 1.1.69 0 2.13-.87 1.45-.87 3.33-2.18t4.09-2.87q2.2-1.56 4.4-2.93"/><path fill="#919191" d="M1020.592 82.91q-1.75 0-4.36.98-2.62.99-5.74 2.71t-6.49 4.06q-3.38 2.34-6.61 5.1-3.24 2.75-6.15 5.8-2.92 3.06-5.08 6.13-.22.23-.22 1.03 0 .81-.26 1.68-.25.87-.98 1.56-.74.69-2.44.69-1.19 0-1.86-.28-.66-.27-1.01-.75-.34-.49-.43-1.15-.09-.67-.09-1.49 0-.83.46-2.44.45-1.6 1.19-3.71.73-2.11 1.65-4.55.92-2.43 1.86-4.86.94-2.44 1.79-4.73t1.45-4.13l-22.17 13.03q-.23.05-.39.07-.16.03-.26.03-.64 0-.94-.35-.29-.34-.29-.85 0-.64.48-1.4.48-.75 1.4-1.31 6.88-4.08 11.36-6.72 4.47-2.64 7.18-4.25 2.71-1.6 4.06-2.38 1.36-.78 2.04-1.15.65-.37 1.18-.5.52-.14 1.17-.14 1.33 0 2.18.78.84.78.84 1.74 0 .97-.59 2.64-.6 1.68-1.47 3.65t-1.79 4.02q-.92 2.04-1.56 3.78-.28.69-.44 1.13-.16.43-.36.98-.21.56-.58 1.4-.37.85-1.05 2.37 1.92-2.48 4.52-5.19 2.59-2.71 5.64-5.3t6.52-4.93 7.16-4.11q3.7-1.77 7.55-2.8 3.86-1.03 7.67-1.03 2.34 0 3.23.98.9.99.9 2.69 0 1.37-.51 3.35-.5 1.97-1.38 4.29-.87 2.32-1.97 4.96t-2.32 5.32q-1.21 2.69-2.43 5.39-1.22 2.71-2.27 5.19 2.61-1.05 5.46-2.75t6.08-3.81q3.24-2.11 6.84-4.57 3.6-2.45 7.73-5.03.33-.18.88-.18 1.1 0 1.1 1.24 0 .64-.51 1.4-.5.76-1.47 1.35-5.46 3.4-9.86 6.48-4.41 3.07-8.06 5.46-3.65 2.38-6.65 3.78-3.01 1.4-5.58 1.4-1.56 0-2.66-.39t-1.82-1.03q-.71-.64-1.05-1.54-.35-.89-.35-1.85 0-1.06.44-2.09.44-1.04 1.22-2.23 1.42-3.12 3.16-6.54 1.75-3.42 3.22-6.49 1.47-3.08 2.48-5.47 1.01-2.38 1.01-3.44 0-.73-.6-.73"/></g><path fill="transparent" stroke="transparent" d="M469.5 0h561v177h-561z"/></g></svg>