<?xml version="1.0" encoding="UTF-8"?>
<svg id="logo" xmlns="http://www.w3.org/2000/svg" viewBox="0 0 800 800">
  <defs>
    <style>
      .cls-1 {
        fill: #bbbe64;
      }

      .cls-2 {
        fill: #c0c5c1;
      }

      .cls-3 {
        fill: #7d8491;
      }

      .cls-4 {
        fill: #fdda5c;
      }

      .cls-5 {
        fill: #e2eef2;
      }

      .cls-6 {
        fill: #eaf0ce;
      }

      .cls-7 {
        fill: #443850;
      }
    </style>
  </defs>
  <g id="petite">
    <path id="neck" class="cls-3" d="M284.27,432.1l9.12-59.49c1.55-9.97,0-20.16-4.33-29.2l-30.75-64.05-85.75-9.04-7.03,26.65-13.44,56.09,35.15,38.78,97.03,40.33v-.08Z"/>
    <path id="feet_light" class="cls-6" d="M255.84,618.51h40.25c5.1,0,7.42-6.41,3.4-9.58l-37.62-29.9-19.85,19.55,13.75,20.01.08-.08Z"/>
    <path id="stomach" class="cls-5" d="M187.16,391.92l-16.69,226.75h85.29s9.19-60.11,9.19-60.11l-66.9-162.16-10.89-4.56v.08Z"/>
    <path id="flipper" class="cls-3" d="M72.74,314.74l-31.29,98.42c-3.09,9.58-3.4,19.85-.93,29.67l40.87,160.85c2.24,8.81,10.12,14.99,19.24,14.99h69.84s36.77-103.91,36.77-103.91c1.08-3.01,1.85-6.1,2.32-9.19.54-3.09.7-6.26.54-9.43s-.54-6.26-1.24-9.35l-21.71-94.87-21.71-94.87-23.79-16.53-68.91,34.07v.15Z"/>
    <path id="beak_light" class="cls-6" d="M293.92,201.41h-73.16s-.15,32.45-.15,32.45l23.95,17.23,52.53-40.25c4.02-3.09,1.85-9.43-3.17-9.43h0Z"/>
    <path id="head" class="cls-2" d="M220.68,201.49h-96.57c-9.19,0-17.38,5.95-20.16,14.76l-31.29,98.42,92.78-17.61,92.71-17.61-13.6-28.35-23.79-49.68-.08.08Z"/>
    <path id="beak_dark" class="cls-1" d="M220.84,201.41l23.79,49.6,18.62-14.29-42.49-35.31h.08Z"/>
    <path id="feet_dark" class="cls-4" d="M255.84,618.67l6.03-39.55,15.53,12.36-21.63,27.12.08.08Z"/>
    <path class="cls-7" d="M309.06,611.72c-.39-3.48-2.09-6.64-4.87-8.81l-34.07-27.12,30.83-201.87c1.78-11.51,0-23.18-5.02-33.68l-41.64-86.84,47.51-36.46h0c3.17-2.39,5.1-6.26,5.1-10.28,0-7.18-5.79-12.98-12.98-12.98H124.19c-12.59,0-23.64,8.03-27.5,20.09l-62.73,197c-3.48,10.97-3.86,22.71-1,33.92l40.87,160.85c3.09,12.21,14.06,20.78,26.73,20.78h195.46c4.02,0,7.8-1.78,10.28-4.94,2.16-2.78,3.17-6.18,2.78-9.66h0ZM48.71,415.33l29.9-94.1,80.89-15.37,41.72,182.48c1.78,7.88,1.31,16.07-1.39,23.72l-34.92,98.73h-64.35c-5.56,0-10.35-3.71-11.74-9.12l-40.87-160.85c-2.09-8.42-1.85-17.23.77-25.49ZM111.44,218.48c1.78-5.56,6.88-9.35,12.75-9.35h91.7s30.98,64.59,30.98,64.59l-162.86,30.9,27.43-86.14h0ZM247.49,239.11l-14.37-29.98h53.54s-39.17,29.98-39.17,29.98ZM281.95,346.88c3.71,7.73,5.02,16.3,3.71,24.72l-7.57,49.68-84.29-35-19-83.13,79.03-14.99,28.2,58.71h-.08ZM275.77,436.96l-21.55,140.91-5.02,32.99h-67.75s33.14-93.56,33.14-93.56c3.63-10.43,4.33-21.55,1.85-32.29l-18.39-80.27,77.64,32.22h.08ZM289.36,610.87h-24.64s2.7-17.46,2.7-17.46l21.94,17.46Z"/>
  </g>
  <g id="gros">
    <path id="neck-2" data-name="neck" class="cls-3" d="M355.37,435.87l157-65.25,56.87-62.75-21.75-90.75-11.37-43.12-138.75,14.63-49.75,103.62c-7,14.63-9.5,31.12-7,47.25l14.75,96.25v.12Z"/>
    <path id="feet_light-2" data-name="feet_light" class="cls-6" d="M401.5,737.5l22.25-32.38-32.12-31.62-60.87,48.37c-6.5,5.12-2.75,15.5,5.5,15.5h65.12l.13.12Z"/>
    <path id="stomach-2" data-name="stomach" class="cls-5" d="M512.5,370.62l-17.62,7.38-108.25,262.37,14.88,97.25h138l-27-366.88v-.12Z"/>
    <path id="flipper-2" data-name="flipper" class="cls-3" d="M697.63,245.62l-111.5-55.12-38.5,26.75-35.12,153.5-35.12,153.5c-1.13,5-1.75,10-2,15.12s0,10.25.87,15.25c.75,5,2,10,3.75,14.87l59.5,168.13h113c14.75,0,27.5-10,31.13-24.25l66.13-260.25c4-15.88,3.5-32.5-1.5-48l-50.62-159.25v-.25Z"/>
    <path id="beak_light-2" data-name="beak_light" class="cls-6" d="M339.75,62.5c-8.12,0-11.63,10.25-5.12,15.25l85,65.13,38.75-27.87-.25-52.5h-118.37Z"/>
    <path id="head-2" data-name="head" class="cls-2" d="M458.13,62.5l-38.5,80.38-22,45.88,150,28.5,150.13,28.5-50.62-159.25c-4.5-14.25-17.75-23.87-32.63-23.87h-156.25l-.13-.13Z"/>
    <path id="beak_dark-2" data-name="beak_dark" class="cls-1" d="M458.13,62.5l-68.75,57.12,30.12,23.13,38.5-80.25h.13Z"/>
    <path id="feet_dark-2" data-name="feet_dark" class="cls-4" d="M401.5,737.5l-35-43.87,25.13-20,9.75,64,.12-.13Z"/>
    <path class="cls-7" d="M315.25,726.38c-.63,5.63,1,11.12,4.5,15.62,4,5.12,10.13,8,16.62,8h316.25c20.5,0,38.25-13.88,43.25-33.62l66.13-260.25c4.62-18.13,4-37.13-1.63-54.87l-101.5-318.75c-6.25-19.5-24.13-32.5-44.5-32.5h-274.62c-11.63,0-21,9.38-21,21,0,6.5,3.12,12.75,8.25,16.62h0l76.87,59-67.37,140.5c-8.12,17-11,35.88-8.12,54.5l49.87,326.62-55.12,43.87c-4.5,3.5-7.25,8.62-7.88,14.25h0ZM737.75,449.87l-66.13,260.25c-2.25,8.75-10,14.75-19,14.75h-104.12l-56.5-159.75c-4.38-12.38-5.12-25.62-2.25-38.37l67.5-295.25,130.88,24.87,48.37,152.25c4.25,13.37,4.62,27.62,1.25,41.25ZM635,90.13l44.37,139.38-263.5-50,50.13-104.5h148.37c9.5,0,17.75,6.12,20.63,15.13h0ZM351.5,75h86.63l-23.25,48.5-63.37-48.5ZM359,297.87l45.62-95,127.87,24.25-30.75,134.5-136.37,56.62-12.25-80.38c-2.13-13.63,0-27.5,6-40h-.13ZM369.25,443.62l125.63-52.13-29.75,129.88c-4,17.37-2.87,35.38,3,52.25l53.62,151.38h-109.63l-8.12-53.38-34.87-228h.13ZM382.62,696.75l4.38,28.25h-39.88l35.5-28.25Z"/>
  </g>
</svg>